<mxfile host="app.diagrams.net" modified="2021-11-10T16:06:10.167Z" agent="5.0 (Windows NT 10.0; Win64; x64) AppleWebKit/537.36 (KHTML, like Gecko) Chrome/95.0.4638.69 Safari/537.36" etag="fekPj5v2mqthIPVCOaJR" version="15.7.1" type="github">
  <diagram id="lPgPhcjOnzQWVIiFUFYi" name="Page-1">
    <mxGraphModel dx="739" dy="393" grid="1" gridSize="10" guides="1" tooltips="1" connect="1" arrows="1" fold="1" page="1" pageScale="1" pageWidth="850" pageHeight="1100" math="0" shadow="0">
      <root>
        <mxCell id="0" />
        <mxCell id="1" parent="0" />
        <mxCell id="n8XJXSsNxZ9o2TplMmrK-6" value="Availability Zone" style="fillColor=none;strokeColor=#007FFF;dashed=1;verticalAlign=top;fontStyle=0;fontColor=#147EBA;strokeWidth=2;" vertex="1" parent="1">
          <mxGeometry x="170" y="35" width="360" height="190" as="geometry" />
        </mxCell>
        <mxCell id="n8XJXSsNxZ9o2TplMmrK-10" value="" style="shadow=0;dashed=0;html=1;strokeColor=none;fillColor=#4495D1;labelPosition=center;verticalLabelPosition=bottom;verticalAlign=top;align=center;outlineConnect=0;shape=mxgraph.veeam.2d.virtual_machine;" vertex="1" parent="1">
          <mxGeometry x="360" y="80" width="39.8" height="40" as="geometry" />
        </mxCell>
        <mxCell id="n8XJXSsNxZ9o2TplMmrK-11" value="" style="fillColor=#fff2cc;strokeColor=#d6b656;dashed=1;verticalAlign=top;fontStyle=0;strokeWidth=2;" vertex="1" parent="1">
          <mxGeometry x="260.6" y="73" width="237.4" height="134" as="geometry" />
        </mxCell>
        <mxCell id="n8XJXSsNxZ9o2TplMmrK-13" value="" style="shadow=0;dashed=0;html=1;strokeColor=none;fillColor=#4495D1;labelPosition=center;verticalLabelPosition=bottom;verticalAlign=top;align=center;outlineConnect=0;shape=mxgraph.veeam.2d.virtual_machine;" vertex="1" parent="1">
          <mxGeometry x="280" y="80" width="40" height="40" as="geometry" />
        </mxCell>
        <mxCell id="n8XJXSsNxZ9o2TplMmrK-14" value="" style="shadow=0;dashed=0;html=1;strokeColor=none;fillColor=#4495D1;labelPosition=center;verticalLabelPosition=bottom;verticalAlign=top;align=center;outlineConnect=0;shape=mxgraph.veeam.2d.virtual_machine;" vertex="1" parent="1">
          <mxGeometry x="440" y="80" width="40" height="40" as="geometry" />
        </mxCell>
        <mxCell id="n8XJXSsNxZ9o2TplMmrK-15" value="" style="shadow=0;dashed=0;html=1;strokeColor=none;fillColor=#4495D1;labelPosition=center;verticalLabelPosition=bottom;verticalAlign=top;align=center;outlineConnect=0;shape=mxgraph.veeam.2d.virtual_machine;" vertex="1" parent="1">
          <mxGeometry x="280" y="160" width="40" height="40" as="geometry" />
        </mxCell>
        <mxCell id="n8XJXSsNxZ9o2TplMmrK-16" value="" style="shadow=0;dashed=0;html=1;strokeColor=none;fillColor=#4495D1;labelPosition=center;verticalLabelPosition=bottom;verticalAlign=top;align=center;outlineConnect=0;shape=mxgraph.veeam.2d.virtual_machine;" vertex="1" parent="1">
          <mxGeometry x="360" y="160" width="40" height="40" as="geometry" />
        </mxCell>
        <mxCell id="n8XJXSsNxZ9o2TplMmrK-17" value="" style="shadow=0;dashed=0;html=1;strokeColor=none;fillColor=#4495D1;labelPosition=center;verticalLabelPosition=bottom;verticalAlign=top;align=center;outlineConnect=0;shape=mxgraph.veeam.2d.virtual_machine;" vertex="1" parent="1">
          <mxGeometry x="440" y="160" width="40" height="40" as="geometry" />
        </mxCell>
        <mxCell id="n8XJXSsNxZ9o2TplMmrK-18" value="" style="endArrow=none;html=1;rounded=0;" edge="1" parent="1" target="n8XJXSsNxZ9o2TplMmrK-13">
          <mxGeometry width="50" height="50" relative="1" as="geometry">
            <mxPoint x="359" y="100" as="sourcePoint" />
            <mxPoint x="300" y="120" as="targetPoint" />
          </mxGeometry>
        </mxCell>
        <mxCell id="n8XJXSsNxZ9o2TplMmrK-19" value="" style="endArrow=none;html=1;rounded=0;" edge="1" parent="1">
          <mxGeometry width="50" height="50" relative="1" as="geometry">
            <mxPoint x="297" y="160" as="sourcePoint" />
            <mxPoint x="297" y="120" as="targetPoint" />
          </mxGeometry>
        </mxCell>
        <mxCell id="n8XJXSsNxZ9o2TplMmrK-21" value="" style="endArrow=none;html=1;rounded=0;" edge="1" parent="1">
          <mxGeometry width="50" height="50" relative="1" as="geometry">
            <mxPoint x="459.5" y="160" as="sourcePoint" />
            <mxPoint x="459.5" y="120" as="targetPoint" />
          </mxGeometry>
        </mxCell>
        <mxCell id="n8XJXSsNxZ9o2TplMmrK-23" value="" style="endArrow=none;html=1;rounded=0;" edge="1" parent="1">
          <mxGeometry width="50" height="50" relative="1" as="geometry">
            <mxPoint x="320" y="182" as="sourcePoint" />
            <mxPoint x="362" y="182" as="targetPoint" />
          </mxGeometry>
        </mxCell>
        <mxCell id="n8XJXSsNxZ9o2TplMmrK-24" value="" style="endArrow=none;html=1;rounded=0;" edge="1" parent="1">
          <mxGeometry width="50" height="50" relative="1" as="geometry">
            <mxPoint x="400" y="184" as="sourcePoint" />
            <mxPoint x="440" y="184" as="targetPoint" />
          </mxGeometry>
        </mxCell>
        <mxCell id="n8XJXSsNxZ9o2TplMmrK-25" value="" style="endArrow=none;html=1;rounded=0;entryX=0.025;entryY=0.525;entryDx=0;entryDy=0;entryPerimeter=0;" edge="1" parent="1" target="n8XJXSsNxZ9o2TplMmrK-14">
          <mxGeometry width="50" height="50" relative="1" as="geometry">
            <mxPoint x="399.8" y="101" as="sourcePoint" />
            <mxPoint x="449.8" y="51" as="targetPoint" />
          </mxGeometry>
        </mxCell>
        <mxCell id="n8XJXSsNxZ9o2TplMmrK-26" value="" style="endArrow=none;html=1;rounded=0;" edge="1" parent="1" source="n8XJXSsNxZ9o2TplMmrK-15">
          <mxGeometry width="50" height="50" relative="1" as="geometry">
            <mxPoint x="322" y="160" as="sourcePoint" />
            <mxPoint x="360" y="118" as="targetPoint" />
          </mxGeometry>
        </mxCell>
        <mxCell id="n8XJXSsNxZ9o2TplMmrK-27" value="" style="endArrow=none;html=1;rounded=0;" edge="1" parent="1" source="n8XJXSsNxZ9o2TplMmrK-16">
          <mxGeometry width="50" height="50" relative="1" as="geometry">
            <mxPoint x="270" y="170" as="sourcePoint" />
            <mxPoint x="320" y="120" as="targetPoint" />
          </mxGeometry>
        </mxCell>
        <mxCell id="n8XJXSsNxZ9o2TplMmrK-28" value="" style="endArrow=none;html=1;rounded=0;" edge="1" parent="1">
          <mxGeometry width="50" height="50" relative="1" as="geometry">
            <mxPoint x="398" y="161" as="sourcePoint" />
            <mxPoint x="440" y="120" as="targetPoint" />
          </mxGeometry>
        </mxCell>
        <mxCell id="n8XJXSsNxZ9o2TplMmrK-29" value="" style="endArrow=none;html=1;rounded=0;" edge="1" parent="1" source="n8XJXSsNxZ9o2TplMmrK-17">
          <mxGeometry width="50" height="50" relative="1" as="geometry">
            <mxPoint x="350" y="170" as="sourcePoint" />
            <mxPoint x="400" y="120" as="targetPoint" />
          </mxGeometry>
        </mxCell>
        <mxCell id="n8XJXSsNxZ9o2TplMmrK-31" value="" style="shadow=0;dashed=0;html=1;strokeColor=none;fillColor=#4495D1;labelPosition=center;verticalLabelPosition=bottom;verticalAlign=top;align=center;outlineConnect=0;shape=mxgraph.veeam.2d.virtual_machine;" vertex="1" parent="1">
          <mxGeometry x="360" y="80" width="40" height="40" as="geometry" />
        </mxCell>
        <mxCell id="n8XJXSsNxZ9o2TplMmrK-32" value="&lt;font style=&quot;font-size: 14px&quot;&gt;&lt;b&gt;Single Rack&amp;nbsp;&lt;/b&gt;&lt;/font&gt;" style="text;html=1;align=center;verticalAlign=middle;resizable=0;points=[];autosize=1;strokeColor=none;fillColor=none;" vertex="1" parent="1">
          <mxGeometry x="169.6" y="123" width="94" height="19" as="geometry" />
        </mxCell>
        <mxCell id="n8XJXSsNxZ9o2TplMmrK-36" value="Availability Zone" style="fillColor=none;strokeColor=#007FFF;dashed=1;verticalAlign=top;fontStyle=0;fontColor=#147EBA;strokeWidth=2;" vertex="1" parent="1">
          <mxGeometry x="79.65" y="260" width="600.7" height="160" as="geometry" />
        </mxCell>
        <mxCell id="n8XJXSsNxZ9o2TplMmrK-54" value="" style="rounded=1;whiteSpace=wrap;html=1;dashed=1;fontSize=14;strokeColor=#d79b00;strokeWidth=2;fillColor=#ffe6cc;" vertex="1" parent="1">
          <mxGeometry x="193.5" y="333.75" width="43" height="46.25" as="geometry" />
        </mxCell>
        <mxCell id="n8XJXSsNxZ9o2TplMmrK-55" value="" style="rounded=0;whiteSpace=wrap;html=1;fontSize=14;strokeWidth=2;fillColor=none;strokeColor=#4A7A72;" vertex="1" parent="1">
          <mxGeometry x="180" y="321.88" width="70" height="70" as="geometry" />
        </mxCell>
        <mxCell id="n8XJXSsNxZ9o2TplMmrK-57" value="&lt;b&gt;VM&lt;/b&gt;" style="text;html=1;align=center;verticalAlign=middle;resizable=0;points=[];autosize=1;strokeColor=none;fillColor=none;fontSize=14;" vertex="1" parent="1">
          <mxGeometry x="195" y="346.88" width="40" height="20" as="geometry" />
        </mxCell>
        <mxCell id="n8XJXSsNxZ9o2TplMmrK-58" value="" style="rounded=1;whiteSpace=wrap;html=1;dashed=1;fontSize=14;strokeColor=#d79b00;strokeWidth=2;fillColor=#ffe6cc;" vertex="1" parent="1">
          <mxGeometry x="274.1" y="333.75" width="43" height="46.25" as="geometry" />
        </mxCell>
        <mxCell id="n8XJXSsNxZ9o2TplMmrK-59" value="" style="rounded=0;whiteSpace=wrap;html=1;fontSize=14;strokeWidth=2;fillColor=none;strokeColor=#4A7A72;" vertex="1" parent="1">
          <mxGeometry x="260.6" y="321.88" width="70" height="70" as="geometry" />
        </mxCell>
        <mxCell id="n8XJXSsNxZ9o2TplMmrK-60" value="&lt;b&gt;VM&lt;/b&gt;" style="text;html=1;align=center;verticalAlign=middle;resizable=0;points=[];autosize=1;strokeColor=none;fillColor=none;fontSize=14;" vertex="1" parent="1">
          <mxGeometry x="275.6" y="346.88" width="40" height="20" as="geometry" />
        </mxCell>
        <mxCell id="n8XJXSsNxZ9o2TplMmrK-61" value="" style="rounded=1;whiteSpace=wrap;html=1;dashed=1;fontSize=14;strokeColor=#d79b00;strokeWidth=2;fillColor=#ffe6cc;" vertex="1" parent="1">
          <mxGeometry x="358.5" y="333.75" width="43" height="46.25" as="geometry" />
        </mxCell>
        <mxCell id="n8XJXSsNxZ9o2TplMmrK-62" value="" style="rounded=0;whiteSpace=wrap;html=1;fontSize=14;strokeWidth=2;fillColor=none;strokeColor=#4A7A72;" vertex="1" parent="1">
          <mxGeometry x="345" y="321.88" width="70" height="70" as="geometry" />
        </mxCell>
        <mxCell id="n8XJXSsNxZ9o2TplMmrK-63" value="&lt;b&gt;VM&lt;/b&gt;" style="text;html=1;align=center;verticalAlign=middle;resizable=0;points=[];autosize=1;strokeColor=none;fillColor=none;fontSize=14;" vertex="1" parent="1">
          <mxGeometry x="360" y="346.88" width="40" height="20" as="geometry" />
        </mxCell>
        <mxCell id="n8XJXSsNxZ9o2TplMmrK-64" value="" style="rounded=1;whiteSpace=wrap;html=1;dashed=1;fontSize=14;strokeColor=#d79b00;strokeWidth=2;fillColor=#ffe6cc;" vertex="1" parent="1">
          <mxGeometry x="438.5" y="333.75" width="43" height="46.25" as="geometry" />
        </mxCell>
        <mxCell id="n8XJXSsNxZ9o2TplMmrK-65" value="" style="rounded=0;whiteSpace=wrap;html=1;fontSize=14;strokeWidth=2;fillColor=none;strokeColor=#4A7A72;" vertex="1" parent="1">
          <mxGeometry x="425" y="321.88" width="70" height="70" as="geometry" />
        </mxCell>
        <mxCell id="n8XJXSsNxZ9o2TplMmrK-66" value="&lt;b&gt;VM&lt;/b&gt;" style="text;html=1;align=center;verticalAlign=middle;resizable=0;points=[];autosize=1;strokeColor=none;fillColor=none;fontSize=14;" vertex="1" parent="1">
          <mxGeometry x="440" y="346.88" width="40" height="20" as="geometry" />
        </mxCell>
        <mxCell id="n8XJXSsNxZ9o2TplMmrK-67" value="" style="rounded=1;whiteSpace=wrap;html=1;dashed=1;fontSize=14;strokeColor=#d79b00;strokeWidth=2;fillColor=#ffe6cc;" vertex="1" parent="1">
          <mxGeometry x="523.5" y="333.75" width="43" height="46.25" as="geometry" />
        </mxCell>
        <mxCell id="n8XJXSsNxZ9o2TplMmrK-68" value="" style="rounded=0;whiteSpace=wrap;html=1;fontSize=14;strokeWidth=2;fillColor=none;strokeColor=#4A7A72;" vertex="1" parent="1">
          <mxGeometry x="510" y="321.88" width="70" height="70" as="geometry" />
        </mxCell>
        <mxCell id="n8XJXSsNxZ9o2TplMmrK-69" value="&lt;b&gt;VM&lt;/b&gt;" style="text;html=1;align=center;verticalAlign=middle;resizable=0;points=[];autosize=1;strokeColor=none;fillColor=none;fontSize=14;" vertex="1" parent="1">
          <mxGeometry x="525" y="346.88" width="40" height="20" as="geometry" />
        </mxCell>
        <mxCell id="n8XJXSsNxZ9o2TplMmrK-70" value="" style="rounded=1;whiteSpace=wrap;html=1;dashed=1;fontSize=14;strokeColor=#d79b00;strokeWidth=2;fillColor=#ffe6cc;" vertex="1" parent="1">
          <mxGeometry x="113.1" y="333.75" width="43" height="46.25" as="geometry" />
        </mxCell>
        <mxCell id="n8XJXSsNxZ9o2TplMmrK-71" value="" style="rounded=0;whiteSpace=wrap;html=1;fontSize=14;strokeWidth=2;fillColor=none;strokeColor=#4A7A72;" vertex="1" parent="1">
          <mxGeometry x="99.6" y="321.88" width="70" height="70" as="geometry" />
        </mxCell>
        <mxCell id="n8XJXSsNxZ9o2TplMmrK-72" value="&lt;b&gt;VM&lt;/b&gt;" style="text;html=1;align=center;verticalAlign=middle;resizable=0;points=[];autosize=1;strokeColor=none;fillColor=none;fontSize=14;" vertex="1" parent="1">
          <mxGeometry x="114.6" y="346.88" width="40" height="20" as="geometry" />
        </mxCell>
        <mxCell id="n8XJXSsNxZ9o2TplMmrK-73" value="" style="rounded=1;whiteSpace=wrap;html=1;dashed=1;fontSize=14;strokeColor=#d79b00;strokeWidth=2;fillColor=#ffe6cc;" vertex="1" parent="1">
          <mxGeometry x="603.5" y="333.75" width="43" height="46.25" as="geometry" />
        </mxCell>
        <mxCell id="n8XJXSsNxZ9o2TplMmrK-74" value="" style="rounded=0;whiteSpace=wrap;html=1;fontSize=14;strokeWidth=2;fillColor=none;strokeColor=#4A7A72;" vertex="1" parent="1">
          <mxGeometry x="590" y="321.88" width="70" height="70" as="geometry" />
        </mxCell>
        <mxCell id="n8XJXSsNxZ9o2TplMmrK-75" value="&lt;b&gt;VM&lt;/b&gt;" style="text;html=1;align=center;verticalAlign=middle;resizable=0;points=[];autosize=1;strokeColor=none;fillColor=none;fontSize=14;" vertex="1" parent="1">
          <mxGeometry x="605" y="346.88" width="40" height="20" as="geometry" />
        </mxCell>
        <mxCell id="n8XJXSsNxZ9o2TplMmrK-76" value="Availability Zone" style="fillColor=none;strokeColor=#007FFF;dashed=1;verticalAlign=top;fontStyle=0;fontColor=#147EBA;strokeWidth=2;" vertex="1" parent="1">
          <mxGeometry x="80" y="480" width="580" height="310" as="geometry" />
        </mxCell>
        <mxCell id="n8XJXSsNxZ9o2TplMmrK-77" value="" style="rounded=1;whiteSpace=wrap;html=1;fontSize=14;strokeColor=#4A7A72;strokeWidth=2;" vertex="1" parent="1">
          <mxGeometry x="101.67" y="552" width="60.35" height="218" as="geometry" />
        </mxCell>
        <mxCell id="n8XJXSsNxZ9o2TplMmrK-86" value="" style="sketch=0;pointerEvents=1;shadow=0;dashed=0;html=1;strokeColor=none;fillColor=#005F4B;labelPosition=center;verticalLabelPosition=bottom;verticalAlign=top;align=center;outlineConnect=0;shape=mxgraph.veeam2.vm_with_a_snapshot;fontSize=14;" vertex="1" parent="1">
          <mxGeometry x="110.83999999999999" y="700" width="42" height="42" as="geometry" />
        </mxCell>
        <mxCell id="n8XJXSsNxZ9o2TplMmrK-87" value="" style="sketch=0;pointerEvents=1;shadow=0;dashed=0;html=1;strokeColor=none;fillColor=#005F4B;labelPosition=center;verticalLabelPosition=bottom;verticalAlign=top;align=center;outlineConnect=0;shape=mxgraph.veeam2.vm_with_a_snapshot;fontSize=14;" vertex="1" parent="1">
          <mxGeometry x="110.83999999999999" y="640" width="42" height="42" as="geometry" />
        </mxCell>
        <mxCell id="n8XJXSsNxZ9o2TplMmrK-88" value="" style="sketch=0;pointerEvents=1;shadow=0;dashed=0;html=1;strokeColor=none;fillColor=#005F4B;labelPosition=center;verticalLabelPosition=bottom;verticalAlign=top;align=center;outlineConnect=0;shape=mxgraph.veeam2.vm_with_a_snapshot;fontSize=14;" vertex="1" parent="1">
          <mxGeometry x="110.83999999999999" y="580" width="42" height="42" as="geometry" />
        </mxCell>
        <mxCell id="n8XJXSsNxZ9o2TplMmrK-89" value="" style="rounded=1;whiteSpace=wrap;html=1;fontSize=14;strokeColor=#4A7A72;strokeWidth=2;" vertex="1" parent="1">
          <mxGeometry x="181.32" y="552" width="60.35" height="218" as="geometry" />
        </mxCell>
        <mxCell id="n8XJXSsNxZ9o2TplMmrK-90" value="" style="sketch=0;pointerEvents=1;shadow=0;dashed=0;html=1;strokeColor=none;fillColor=#005F4B;labelPosition=center;verticalLabelPosition=bottom;verticalAlign=top;align=center;outlineConnect=0;shape=mxgraph.veeam2.vm_with_a_snapshot;fontSize=14;" vertex="1" parent="1">
          <mxGeometry x="190.49" y="700" width="42" height="42" as="geometry" />
        </mxCell>
        <mxCell id="n8XJXSsNxZ9o2TplMmrK-91" value="" style="sketch=0;pointerEvents=1;shadow=0;dashed=0;html=1;strokeColor=none;fillColor=#005F4B;labelPosition=center;verticalLabelPosition=bottom;verticalAlign=top;align=center;outlineConnect=0;shape=mxgraph.veeam2.vm_with_a_snapshot;fontSize=14;" vertex="1" parent="1">
          <mxGeometry x="190.49" y="640" width="42" height="42" as="geometry" />
        </mxCell>
        <mxCell id="n8XJXSsNxZ9o2TplMmrK-92" value="" style="sketch=0;pointerEvents=1;shadow=0;dashed=0;html=1;strokeColor=none;fillColor=#005F4B;labelPosition=center;verticalLabelPosition=bottom;verticalAlign=top;align=center;outlineConnect=0;shape=mxgraph.veeam2.vm_with_a_snapshot;fontSize=14;" vertex="1" parent="1">
          <mxGeometry x="190.49" y="580" width="42" height="42" as="geometry" />
        </mxCell>
        <mxCell id="n8XJXSsNxZ9o2TplMmrK-93" value="" style="rounded=1;whiteSpace=wrap;html=1;fontSize=14;strokeColor=#4A7A72;strokeWidth=2;" vertex="1" parent="1">
          <mxGeometry x="259.82" y="552" width="60.35" height="218" as="geometry" />
        </mxCell>
        <mxCell id="n8XJXSsNxZ9o2TplMmrK-94" value="" style="sketch=0;pointerEvents=1;shadow=0;dashed=0;html=1;strokeColor=none;fillColor=#005F4B;labelPosition=center;verticalLabelPosition=bottom;verticalAlign=top;align=center;outlineConnect=0;shape=mxgraph.veeam2.vm_with_a_snapshot;fontSize=14;" vertex="1" parent="1">
          <mxGeometry x="268.99" y="700" width="42" height="42" as="geometry" />
        </mxCell>
        <mxCell id="n8XJXSsNxZ9o2TplMmrK-95" value="" style="sketch=0;pointerEvents=1;shadow=0;dashed=0;html=1;strokeColor=none;fillColor=#005F4B;labelPosition=center;verticalLabelPosition=bottom;verticalAlign=top;align=center;outlineConnect=0;shape=mxgraph.veeam2.vm_with_a_snapshot;fontSize=14;" vertex="1" parent="1">
          <mxGeometry x="268.99" y="640" width="42" height="42" as="geometry" />
        </mxCell>
        <mxCell id="n8XJXSsNxZ9o2TplMmrK-96" value="" style="sketch=0;pointerEvents=1;shadow=0;dashed=0;html=1;strokeColor=none;fillColor=#005F4B;labelPosition=center;verticalLabelPosition=bottom;verticalAlign=top;align=center;outlineConnect=0;shape=mxgraph.veeam2.vm_with_a_snapshot;fontSize=14;" vertex="1" parent="1">
          <mxGeometry x="268.99" y="580" width="42" height="42" as="geometry" />
        </mxCell>
        <mxCell id="n8XJXSsNxZ9o2TplMmrK-97" value="" style="rounded=1;whiteSpace=wrap;html=1;fontSize=14;strokeColor=#4A7A72;strokeWidth=2;" vertex="1" parent="1">
          <mxGeometry x="339.82" y="552" width="60.35" height="218" as="geometry" />
        </mxCell>
        <mxCell id="n8XJXSsNxZ9o2TplMmrK-98" value="" style="sketch=0;pointerEvents=1;shadow=0;dashed=0;html=1;strokeColor=none;fillColor=#005F4B;labelPosition=center;verticalLabelPosition=bottom;verticalAlign=top;align=center;outlineConnect=0;shape=mxgraph.veeam2.vm_with_a_snapshot;fontSize=14;" vertex="1" parent="1">
          <mxGeometry x="348.99" y="698" width="42" height="42" as="geometry" />
        </mxCell>
        <mxCell id="n8XJXSsNxZ9o2TplMmrK-99" value="" style="sketch=0;pointerEvents=1;shadow=0;dashed=0;html=1;strokeColor=none;fillColor=#005F4B;labelPosition=center;verticalLabelPosition=bottom;verticalAlign=top;align=center;outlineConnect=0;shape=mxgraph.veeam2.vm_with_a_snapshot;fontSize=14;" vertex="1" parent="1">
          <mxGeometry x="348.99" y="638" width="42" height="42" as="geometry" />
        </mxCell>
        <mxCell id="n8XJXSsNxZ9o2TplMmrK-100" value="" style="sketch=0;pointerEvents=1;shadow=0;dashed=0;html=1;strokeColor=none;fillColor=#005F4B;labelPosition=center;verticalLabelPosition=bottom;verticalAlign=top;align=center;outlineConnect=0;shape=mxgraph.veeam2.vm_with_a_snapshot;fontSize=14;" vertex="1" parent="1">
          <mxGeometry x="348.99" y="578" width="42" height="42" as="geometry" />
        </mxCell>
        <mxCell id="n8XJXSsNxZ9o2TplMmrK-101" value="" style="rounded=1;whiteSpace=wrap;html=1;fontSize=14;strokeColor=#4A7A72;strokeWidth=2;" vertex="1" parent="1">
          <mxGeometry x="421.67" y="552" width="60.35" height="218" as="geometry" />
        </mxCell>
        <mxCell id="n8XJXSsNxZ9o2TplMmrK-102" value="" style="sketch=0;pointerEvents=1;shadow=0;dashed=0;html=1;strokeColor=none;fillColor=#005F4B;labelPosition=center;verticalLabelPosition=bottom;verticalAlign=top;align=center;outlineConnect=0;shape=mxgraph.veeam2.vm_with_a_snapshot;fontSize=14;" vertex="1" parent="1">
          <mxGeometry x="430.84000000000003" y="700" width="42" height="42" as="geometry" />
        </mxCell>
        <mxCell id="n8XJXSsNxZ9o2TplMmrK-103" value="" style="sketch=0;pointerEvents=1;shadow=0;dashed=0;html=1;strokeColor=none;fillColor=#005F4B;labelPosition=center;verticalLabelPosition=bottom;verticalAlign=top;align=center;outlineConnect=0;shape=mxgraph.veeam2.vm_with_a_snapshot;fontSize=14;" vertex="1" parent="1">
          <mxGeometry x="430.84000000000003" y="640" width="42" height="42" as="geometry" />
        </mxCell>
        <mxCell id="n8XJXSsNxZ9o2TplMmrK-104" value="" style="sketch=0;pointerEvents=1;shadow=0;dashed=0;html=1;strokeColor=none;fillColor=#005F4B;labelPosition=center;verticalLabelPosition=bottom;verticalAlign=top;align=center;outlineConnect=0;shape=mxgraph.veeam2.vm_with_a_snapshot;fontSize=14;" vertex="1" parent="1">
          <mxGeometry x="430.84000000000003" y="580" width="42" height="42" as="geometry" />
        </mxCell>
        <mxCell id="n8XJXSsNxZ9o2TplMmrK-105" value="" style="rounded=1;whiteSpace=wrap;html=1;fontSize=14;strokeColor=#4A7A72;strokeWidth=2;" vertex="1" parent="1">
          <mxGeometry x="506.32" y="552" width="60.35" height="218" as="geometry" />
        </mxCell>
        <mxCell id="n8XJXSsNxZ9o2TplMmrK-106" value="" style="sketch=0;pointerEvents=1;shadow=0;dashed=0;html=1;strokeColor=none;fillColor=#005F4B;labelPosition=center;verticalLabelPosition=bottom;verticalAlign=top;align=center;outlineConnect=0;shape=mxgraph.veeam2.vm_with_a_snapshot;fontSize=14;" vertex="1" parent="1">
          <mxGeometry x="515.4899999999999" y="700" width="42" height="42" as="geometry" />
        </mxCell>
        <mxCell id="n8XJXSsNxZ9o2TplMmrK-107" value="" style="sketch=0;pointerEvents=1;shadow=0;dashed=0;html=1;strokeColor=none;fillColor=#005F4B;labelPosition=center;verticalLabelPosition=bottom;verticalAlign=top;align=center;outlineConnect=0;shape=mxgraph.veeam2.vm_with_a_snapshot;fontSize=14;" vertex="1" parent="1">
          <mxGeometry x="515.4899999999999" y="640" width="42" height="42" as="geometry" />
        </mxCell>
        <mxCell id="n8XJXSsNxZ9o2TplMmrK-108" value="" style="sketch=0;pointerEvents=1;shadow=0;dashed=0;html=1;strokeColor=none;fillColor=#005F4B;labelPosition=center;verticalLabelPosition=bottom;verticalAlign=top;align=center;outlineConnect=0;shape=mxgraph.veeam2.vm_with_a_snapshot;fontSize=14;" vertex="1" parent="1">
          <mxGeometry x="515.4899999999999" y="580" width="42" height="42" as="geometry" />
        </mxCell>
        <mxCell id="n8XJXSsNxZ9o2TplMmrK-109" value="" style="rounded=1;whiteSpace=wrap;html=1;fontSize=14;strokeColor=#4A7A72;strokeWidth=2;" vertex="1" parent="1">
          <mxGeometry x="584.65" y="552" width="60.35" height="218" as="geometry" />
        </mxCell>
        <mxCell id="n8XJXSsNxZ9o2TplMmrK-110" value="" style="sketch=0;pointerEvents=1;shadow=0;dashed=0;html=1;strokeColor=none;fillColor=#005F4B;labelPosition=center;verticalLabelPosition=bottom;verticalAlign=top;align=center;outlineConnect=0;shape=mxgraph.veeam2.vm_with_a_snapshot;fontSize=14;" vertex="1" parent="1">
          <mxGeometry x="593.82" y="700" width="42" height="42" as="geometry" />
        </mxCell>
        <mxCell id="n8XJXSsNxZ9o2TplMmrK-111" value="" style="sketch=0;pointerEvents=1;shadow=0;dashed=0;html=1;strokeColor=none;fillColor=#005F4B;labelPosition=center;verticalLabelPosition=bottom;verticalAlign=top;align=center;outlineConnect=0;shape=mxgraph.veeam2.vm_with_a_snapshot;fontSize=14;" vertex="1" parent="1">
          <mxGeometry x="593.82" y="640" width="42" height="42" as="geometry" />
        </mxCell>
        <mxCell id="n8XJXSsNxZ9o2TplMmrK-112" value="" style="sketch=0;pointerEvents=1;shadow=0;dashed=0;html=1;strokeColor=none;fillColor=#005F4B;labelPosition=center;verticalLabelPosition=bottom;verticalAlign=top;align=center;outlineConnect=0;shape=mxgraph.veeam2.vm_with_a_snapshot;fontSize=14;" vertex="1" parent="1">
          <mxGeometry x="593.82" y="580" width="42" height="42" as="geometry" />
        </mxCell>
        <mxCell id="n8XJXSsNxZ9o2TplMmrK-113" value="&lt;b&gt;Part 1&lt;/b&gt;" style="text;html=1;align=center;verticalAlign=middle;resizable=0;points=[];autosize=1;strokeColor=none;fillColor=none;fontSize=14;" vertex="1" parent="1">
          <mxGeometry x="106.83999999999999" y="530" width="50" height="20" as="geometry" />
        </mxCell>
        <mxCell id="n8XJXSsNxZ9o2TplMmrK-114" value="&lt;b&gt;Part 2&lt;/b&gt;" style="text;html=1;align=center;verticalAlign=middle;resizable=0;points=[];autosize=1;strokeColor=none;fillColor=none;fontSize=14;" vertex="1" parent="1">
          <mxGeometry x="185.76999999999998" y="530" width="50" height="20" as="geometry" />
        </mxCell>
        <mxCell id="n8XJXSsNxZ9o2TplMmrK-115" value="&lt;b&gt;Part 3&lt;/b&gt;" style="text;html=1;align=center;verticalAlign=middle;resizable=0;points=[];autosize=1;strokeColor=none;fillColor=none;fontSize=14;" vertex="1" parent="1">
          <mxGeometry x="264.99" y="530" width="50" height="20" as="geometry" />
        </mxCell>
        <mxCell id="n8XJXSsNxZ9o2TplMmrK-116" value="&lt;b&gt;Part 4&lt;/b&gt;" style="text;html=1;align=center;verticalAlign=middle;resizable=0;points=[];autosize=1;strokeColor=none;fillColor=none;fontSize=14;" vertex="1" parent="1">
          <mxGeometry x="344.99" y="530" width="50" height="20" as="geometry" />
        </mxCell>
        <mxCell id="n8XJXSsNxZ9o2TplMmrK-117" value="&lt;b&gt;Part 5&lt;/b&gt;" style="text;html=1;align=center;verticalAlign=middle;resizable=0;points=[];autosize=1;strokeColor=none;fillColor=none;fontSize=14;" vertex="1" parent="1">
          <mxGeometry x="426.84" y="532" width="50" height="20" as="geometry" />
        </mxCell>
        <mxCell id="n8XJXSsNxZ9o2TplMmrK-118" value="&lt;b&gt;Part 6&lt;/b&gt;" style="text;html=1;align=center;verticalAlign=middle;resizable=0;points=[];autosize=1;strokeColor=none;fillColor=none;fontSize=14;" vertex="1" parent="1">
          <mxGeometry x="511.49999999999994" y="530" width="50" height="20" as="geometry" />
        </mxCell>
        <mxCell id="n8XJXSsNxZ9o2TplMmrK-119" value="&lt;b&gt;Part 7&lt;/b&gt;" style="text;html=1;align=center;verticalAlign=middle;resizable=0;points=[];autosize=1;strokeColor=none;fillColor=none;fontSize=14;" vertex="1" parent="1">
          <mxGeometry x="596.8399999999999" y="530" width="50" height="20" as="geometry" />
        </mxCell>
      </root>
    </mxGraphModel>
  </diagram>
</mxfile>
